<svg width="22" height="22" viewBox="0 0 22 22" fill="none" xmlns="http://www.w3.org/2000/svg">
<path d="M20.7778 11C20.4519 11 20.1616 10.8829 19.9069 10.6486C19.6523 10.4144 19.5046 10.1241 19.4639 9.77778C19.1991 7.88333 18.3995 6.26898 17.0653 4.93472C15.731 3.60046 14.1167 2.80093 12.2222 2.53611C11.8759 2.49537 11.5856 2.35278 11.3514 2.10833C11.1171 1.86389 11 1.56852 11 1.22222C11 0.875926 11.1222 0.585648 11.3667 0.351389C11.6111 0.11713 11.8963 0.0203704 12.2222 0.0611111C14.7889 0.346296 16.9787 1.39537 18.7917 3.20833C20.6046 5.0213 21.6537 7.21111 21.9389 9.77778C21.9796 10.1037 21.8829 10.3889 21.6486 10.6333C21.4144 10.8778 21.1241 11 20.7778 11ZM15.675 11C15.4102 11 15.1759 10.9083 14.9722 10.725C14.7685 10.5417 14.6157 10.2972 14.5139 9.99167C14.3509 9.40093 14.0403 8.87639 13.5819 8.41806C13.1236 7.95972 12.5991 7.64907 12.0083 7.48611C11.7028 7.38426 11.4583 7.23148 11.275 7.02778C11.0917 6.82407 11 6.57963 11 6.29444C11 5.88704 11.1426 5.55602 11.4278 5.30139C11.713 5.04676 12.0287 4.96019 12.375 5.04167C13.5157 5.30648 14.4986 5.85139 15.3236 6.67639C16.1486 7.50139 16.6935 8.48426 16.9583 9.625C17.0398 9.9713 16.9481 10.287 16.6833 10.5722C16.4185 10.8574 16.0824 11 15.675 11ZM20.7167 22C18.1704 22 15.6546 21.4449 13.1694 20.3347C10.6843 19.2245 8.42315 17.6509 6.38611 15.6139C4.34907 13.5769 2.77546 11.3157 1.66528 8.83055C0.555093 6.34537 0 3.82963 0 1.28333C0 0.916667 0.122222 0.611111 0.366667 0.366667C0.611111 0.122222 0.916667 0 1.28333 0H6.23333C6.51852 0 6.77315 0.0967592 6.99722 0.290278C7.2213 0.483796 7.3537 0.712963 7.39444 0.977778L8.18889 5.25556C8.22963 5.58148 8.21944 5.85648 8.15833 6.08056C8.09722 6.30463 7.98519 6.49815 7.82222 6.66111L4.85833 9.65556C5.26574 10.4093 5.74954 11.1375 6.30972 11.8403C6.86991 12.5431 7.48611 13.2204 8.15833 13.8722C8.78981 14.5037 9.45185 15.0894 10.1444 15.6292C10.837 16.169 11.5704 16.663 12.3444 17.1111L15.2167 14.2389C15.4 14.0556 15.6394 13.9181 15.9347 13.8264C16.2301 13.7347 16.5204 13.7093 16.8056 13.75L21.0222 14.6056C21.3074 14.687 21.5417 14.8347 21.725 15.0486C21.9083 15.2625 22 15.5019 22 15.7667V20.7167C22 21.0833 21.8778 21.3889 21.6333 21.6333C21.3889 21.8778 21.0833 22 20.7167 22Z" fill="#A5ADAB"/>
</svg>
