<svg width="57" height="29" viewBox="0 0 57 29" fill="none" xmlns="http://www.w3.org/2000/svg">
<rect y="0.133301" width="57" height="28" rx="10" fill="#22172A" fill-opacity="0.2"/>
<path d="M34.962 19.154C34.4673 19.154 33.9633 19.098 33.45 18.986C32.946 18.8647 32.5073 18.6967 32.134 18.482C31.8913 18.3513 31.7233 18.1973 31.63 18.02C31.546 17.8333 31.5133 17.6513 31.532 17.474C31.56 17.2967 31.6347 17.1427 31.756 17.012C31.8773 16.872 32.0313 16.7833 32.218 16.746C32.414 16.7087 32.6287 16.746 32.862 16.858C33.226 17.0353 33.5713 17.1613 33.898 17.236C34.2247 17.3107 34.5513 17.348 34.878 17.348C35.2513 17.348 35.564 17.3013 35.816 17.208C36.068 17.1053 36.2593 16.9607 36.39 16.774C36.5207 16.5873 36.586 16.354 36.586 16.074C36.586 15.682 36.4507 15.388 36.18 15.192C35.9093 14.996 35.5127 14.898 34.99 14.898H34.164C33.856 14.898 33.618 14.8233 33.45 14.674C33.2913 14.5153 33.212 14.3007 33.212 14.03C33.212 13.75 33.2913 13.5353 33.45 13.386C33.618 13.2273 33.856 13.148 34.164 13.148H34.78C35.0973 13.148 35.3633 13.1013 35.578 13.008C35.802 12.9053 35.9747 12.7653 36.096 12.588C36.2267 12.4107 36.292 12.1913 36.292 11.93C36.292 11.5567 36.1613 11.272 35.9 11.076C35.648 10.88 35.2793 10.782 34.794 10.782C34.4953 10.782 34.2013 10.8193 33.912 10.894C33.6227 10.9593 33.31 11.0807 32.974 11.258C32.7687 11.3607 32.5773 11.3933 32.4 11.356C32.2227 11.3187 32.0733 11.2347 31.952 11.104C31.84 10.9733 31.7653 10.824 31.728 10.656C31.7 10.4787 31.7233 10.3013 31.798 10.124C31.882 9.94667 32.0313 9.802 32.246 9.69C32.6473 9.45667 33.0813 9.27933 33.548 9.158C34.024 9.03667 34.5047 8.976 34.99 8.976C35.6993 8.976 36.306 9.08333 36.81 9.298C37.314 9.51267 37.7013 9.82067 37.972 10.222C38.2427 10.614 38.378 11.09 38.378 11.65C38.378 12.0327 38.3033 12.3827 38.154 12.7C38.0047 13.0173 37.7947 13.288 37.524 13.512C37.2627 13.7267 36.9407 13.8807 36.558 13.974V13.792C37.2207 13.904 37.7387 14.1793 38.112 14.618C38.4853 15.0567 38.672 15.6073 38.672 16.27C38.672 16.858 38.5227 17.3713 38.224 17.81C37.9253 18.2393 37.496 18.5707 36.936 18.804C36.3853 19.0373 35.7273 19.154 34.962 19.154ZM44.2945 19.154C43.0999 19.154 42.1852 18.7107 41.5505 17.824C40.9252 16.928 40.6125 15.6633 40.6125 14.03C40.6125 12.938 40.7525 12.0187 41.0325 11.272C41.3219 10.516 41.7372 9.94667 42.2785 9.564C42.8292 9.172 43.5012 8.976 44.2945 8.976C45.4985 8.976 46.4132 9.41 47.0385 10.278C47.6639 11.1367 47.9765 12.3873 47.9765 14.03C47.9765 15.122 47.8319 16.0507 47.5425 16.816C47.2625 17.572 46.8519 18.1507 46.3105 18.552C45.7692 18.9533 45.0972 19.154 44.2945 19.154ZM44.2945 17.39C44.8359 17.39 45.2372 17.124 45.4985 16.592C45.7599 16.0507 45.8905 15.1967 45.8905 14.03C45.8905 12.8633 45.7599 12.0233 45.4985 11.51C45.2372 10.9967 44.8359 10.74 44.2945 10.74C43.7532 10.74 43.3519 10.9967 43.0905 11.51C42.8292 12.0233 42.6985 12.8633 42.6985 14.03C42.6985 15.1967 42.8292 16.0507 43.0905 16.592C43.3519 17.124 43.7532 17.39 44.2945 17.39Z" fill="white"/>
<path d="M20.3219 11.0312L16.4702 22.1334L25.9397 11.0312H20.3219Z" fill="#FFDF79"/>
<path d="M10.9184 6.1333L7 11.0313H12.6177L10.9184 6.1333Z" fill="#FFC55B"/>
<path d="M20.3207 11.0313H25.9385L22.02 6.1333L20.3207 11.0313Z" fill="#FFC55E"/>
<path d="M20.3218 11.0313L16.4701 6.1333L12.6183 11.0313H20.3218Z" fill="#FFC357"/>
<path d="M16.4693 6.1333H10.9182L12.6175 11.0313L16.4693 6.1333Z" fill="#FF9D4C"/>
<path d="M22.021 6.1333H16.47L20.3217 11.0313L22.021 6.1333Z" fill="#FFDA64"/>
<path d="M12.6183 11.0312L16.4701 22.1334L20.3218 11.0312H12.6183Z" fill="#FFA153"/>
<path d="M7 11.0312L16.4695 22.1334L12.6177 11.0312H7Z" fill="#FF814A"/>
</svg>
