<svg width="31" height="30" viewBox="0 0 31 30" fill="none" xmlns="http://www.w3.org/2000/svg">
<path fill-rule="evenodd" clip-rule="evenodd" d="M16.8567 27.5H14.0115C9.57861 27.5 7.36218 27.5 5.85084 26.2352C4.3395 24.9705 4.02605 22.8533 3.39915 18.619L3.04061 16.1973C2.55258 12.901 2.30856 11.2529 3.00369 9.84368C3.69881 8.4345 5.17838 7.57792 8.13751 5.86476L9.91865 4.83359C12.6058 3.27786 13.9494 2.5 15.4341 2.5C16.9187 2.5 18.2623 3.27786 20.9495 4.83359L22.7307 5.86476C25.6898 7.57792 27.1694 8.4345 27.8645 9.84368C28.5596 11.2529 28.3156 12.901 27.8276 16.1973L27.469 18.619C26.8421 22.8533 26.5287 24.9705 25.0173 26.2352C23.506 27.5 21.2896 27.5 16.8567 27.5ZM10.8007 19.4415C11.118 19.0255 11.7221 18.9383 12.1501 19.2466C13.0869 19.9214 14.2176 20.3122 15.4342 20.3122C16.6508 20.3122 17.7815 19.9214 18.7183 19.2466C19.1463 18.9383 19.7504 19.0255 20.0677 19.4415C20.3849 19.8574 20.2951 20.4446 19.8672 20.7529C18.6165 21.6539 17.0869 22.1872 15.4342 22.1872C13.7815 22.1872 12.252 21.6539 11.0013 20.7529C10.5733 20.4446 10.4835 19.8574 10.8007 19.4415Z" fill="#19C472"/>
</svg>
