<svg width="31" height="30" viewBox="0 0 31 30" fill="none" xmlns="http://www.w3.org/2000/svg">
<path d="M28.2957 10.2029L28.2957 10.2936C28.2957 11.3695 28.2957 11.9075 28.0292 12.3476C27.7627 12.7878 27.2789 13.049 26.3111 13.5716L25.2908 14.1225C25.9939 11.8123 26.2285 9.33018 26.3152 7.20747C26.3189 7.11645 26.3231 7.02432 26.3273 6.93121L26.3303 6.86599C27.1679 7.1487 27.6382 7.35947 27.9316 7.7551C28.2958 8.24616 28.2958 8.89841 28.2957 10.2029Z" fill="#A5ADAB"/>
<path d="M2.57235 10.2029L2.57235 10.2936C2.57238 11.3695 2.5724 11.9075 2.83888 12.3476C3.10536 12.7878 3.58924 13.049 4.55698 13.5716L5.57789 14.1228C4.87469 11.8125 4.6401 9.33027 4.55338 7.20747C4.54966 7.11645 4.54547 7.02432 4.54124 6.93121L4.53827 6.86583C3.70033 7.14862 3.22991 7.3594 2.93646 7.7551C2.5723 8.24616 2.57231 8.89842 2.57235 10.2029Z" fill="#A5ADAB"/>
<path fill-rule="evenodd" clip-rule="evenodd" d="M21.0638 2.93343C19.6181 2.69636 17.7282 2.5 15.4343 2.5C13.1403 2.5 11.2505 2.69636 9.80473 2.93343C8.34013 3.17359 7.60783 3.29367 6.99597 4.02604C6.38412 4.75841 6.41645 5.54997 6.48112 7.13309C6.70314 12.568 7.90992 19.3563 14.4695 19.9571V24.375H12.63C12.0169 24.375 11.489 24.7956 11.3688 25.3799L11.1254 26.5625H7.71704C7.18429 26.5625 6.75241 26.9822 6.75241 27.5C6.75241 28.0178 7.18429 28.4375 7.71704 28.4375H23.1511C23.6839 28.4375 24.1158 28.0178 24.1158 27.5C24.1158 26.9822 23.6839 26.5625 23.1511 26.5625H19.7428L19.4994 25.3799C19.3792 24.7956 18.8513 24.375 18.2382 24.375H16.3987V19.9571C22.9586 19.3566 24.1654 12.5681 24.3874 7.13309C24.4521 5.54997 24.4845 4.75841 23.8726 4.02604C23.2607 3.29367 22.5284 3.17359 21.0638 2.93343Z" fill="#A5ADAB"/>
</svg>
