<svg width="55" height="30" viewBox="0 0 55 30" fill="none" xmlns="http://www.w3.org/2000/svg">
<rect x="1" y="1" width="53" height="28" rx="9" fill="url(#paint0_linear_4910_2945)" stroke="#FFC89B" stroke-width="2"/>
<path d="M14.184 19.9927C13.7733 19.9927 13.456 19.8807 13.232 19.6567C13.008 19.4234 12.896 19.1014 12.896 18.6907V11.2987C12.896 10.8787 13.008 10.5567 13.232 10.3327C13.4653 10.1087 13.7873 9.9967 14.198 9.9967H17.642C18.762 9.9967 19.6253 10.286 20.232 10.8647C20.848 11.434 21.156 12.2227 21.156 13.2307C21.156 14.2387 20.848 15.032 20.232 15.6107C19.6253 16.18 18.762 16.4647 17.642 16.4647H15.472V18.6907C15.472 19.1014 15.3647 19.4234 15.15 19.6567C14.9353 19.8807 14.6133 19.9927 14.184 19.9927ZM15.472 14.4907H17.194C17.6793 14.4907 18.0527 14.388 18.314 14.1827C18.5753 13.968 18.706 13.6507 18.706 13.2307C18.706 12.8014 18.5753 12.484 18.314 12.2787C18.0527 12.0734 17.6793 11.9707 17.194 11.9707H15.472V14.4907ZM24.3449 19.9927C23.9343 19.9927 23.6169 19.8807 23.3929 19.6567C23.1689 19.4234 23.0569 19.1014 23.0569 18.6907V11.2987C23.0569 10.8787 23.1689 10.5567 23.3929 10.3327C23.6263 10.1087 23.9483 9.9967 24.3589 9.9967H27.8029C28.9229 9.9967 29.7863 10.272 30.3929 10.8227C31.0089 11.364 31.3169 12.12 31.3169 13.0907C31.3169 13.716 31.1769 14.262 30.8969 14.7287C30.6263 15.186 30.2296 15.5407 29.7069 15.7927C29.1936 16.0354 28.5589 16.1567 27.8029 16.1567L27.9149 15.9047H28.5869C28.9883 15.9047 29.3429 16.0027 29.6509 16.1987C29.9589 16.3854 30.2156 16.6747 30.4209 17.0667L31.1209 18.3267C31.2703 18.5974 31.3403 18.8634 31.3309 19.1247C31.3216 19.3767 31.2189 19.5867 31.0229 19.7547C30.8363 19.9134 30.5609 19.9927 30.1969 19.9927C29.8329 19.9927 29.5343 19.918 29.3009 19.7687C29.0769 19.6194 28.8763 19.386 28.6989 19.0687L27.4249 16.7307C27.3129 16.5254 27.1683 16.3854 26.9909 16.3107C26.8229 16.2267 26.6269 16.1847 26.4029 16.1847H25.6329V18.6907C25.6329 19.1014 25.5256 19.4234 25.3109 19.6567C25.0963 19.8807 24.7743 19.9927 24.3449 19.9927ZM25.6329 14.3647H27.3409C27.8356 14.3647 28.2136 14.2667 28.4749 14.0707C28.7363 13.8747 28.8669 13.5714 28.8669 13.1607C28.8669 12.7687 28.7363 12.4747 28.4749 12.2787C28.2136 12.0734 27.8356 11.9707 27.3409 11.9707H25.6329V14.3647ZM38.3333 20.0207C37.3347 20.0207 36.4573 19.8107 35.7013 19.3907C34.9453 18.9614 34.3573 18.364 33.9373 17.5987C33.5267 16.8334 33.3213 15.942 33.3213 14.9247C33.3213 14.1594 33.438 13.464 33.6713 12.8387C33.914 12.2134 34.2547 11.6767 34.6933 11.2287C35.1413 10.7807 35.6733 10.44 36.2893 10.2067C36.9053 9.96403 37.5867 9.8427 38.3333 9.8427C39.332 9.8427 40.2047 10.0527 40.9513 10.4727C41.7073 10.8927 42.2953 11.4854 42.7153 12.2507C43.1353 13.0067 43.3453 13.898 43.3453 14.9247C43.3453 15.69 43.224 16.3854 42.9813 17.0107C42.748 17.636 42.4073 18.1774 41.9593 18.6347C41.5207 19.0827 40.9933 19.428 40.3773 19.6707C39.7613 19.904 39.08 20.0207 38.3333 20.0207ZM38.3333 17.8647C38.828 17.8647 39.248 17.748 39.5933 17.5147C39.9387 17.2814 40.2047 16.9454 40.3913 16.5067C40.578 16.068 40.6713 15.5407 40.6713 14.9247C40.6713 14.0007 40.466 13.282 40.0553 12.7687C39.6447 12.2554 39.0707 11.9987 38.3333 11.9987C37.848 11.9987 37.428 12.1154 37.0733 12.3487C36.728 12.5727 36.462 12.904 36.2753 13.3427C36.0887 13.772 35.9953 14.2994 35.9953 14.9247C35.9953 15.8487 36.2007 16.572 36.6113 17.0947C37.022 17.608 37.596 17.8647 38.3333 17.8647Z" fill="white"/>
<defs>
<linearGradient id="paint0_linear_4910_2945" x1="27.5" y1="2" x2="27.5" y2="28" gradientUnits="userSpaceOnUse">
<stop stop-color="#FF9055"/>
<stop offset="1" stop-color="#FF796E"/>
</linearGradient>
</defs>
</svg>
